<svg width="360" height="640" viewBox="0 0 360 640" fill="none" xmlns="http://www.w3.org/2000/svg">
<rect width="360" height="640" fill="black"/>
<path d="M139.2 281.36C145 281.36 149.08 286.86 151.44 297.86C151.68 298.5 151.8 299.8 151.8 301.76V302.18C151.8 306.38 150.48 311.2 147.84 316.64C148.88 317 150.48 317.18 152.64 317.18C154.84 317.18 157.36 316.42 160.2 314.9C161.04 314.9 161.62 315.6 161.94 317C161.94 318.72 158.6 319.98 151.92 320.78H151.8L145.02 319.76C142.14 322.04 139.4 323.18 136.8 323.18C131.36 323.18 127.1 319.42 124.02 311.9C123.02 308.94 122.52 305.82 122.52 302.54V301.64C122.52 292.28 124.9 286.28 129.66 283.64L133.2 282.68L134.52 282.86C136.04 281.86 137.6 281.36 139.2 281.36ZM131.7 298.04V299.9C131.7 306.94 135.82 312.14 144.06 315.5C146.82 311.66 148.2 307.16 148.2 302V301.64C148.2 295.4 146.2 290.14 142.2 285.86C140.96 285.22 140.04 284.9 139.44 284.9H138.84C137.08 284.9 135.32 286.22 133.56 288.86C132.32 291.58 131.7 294.64 131.7 298.04ZM126.06 301.4V303.26C126.06 311.38 128.94 316.72 134.7 319.28C135.18 319.52 135.88 319.64 136.8 319.64H137.16C138.76 319.64 140.02 319.18 140.94 318.26V317.9C132.42 313.82 128.16 307.52 128.16 299V298.04C128.16 294.44 128.92 290.94 130.44 287.54H130.02C127.38 289.98 126.06 294.6 126.06 301.4ZM158.345 301.94L159.425 301.34C160.385 301.34 161.085 301.92 161.525 303.08C160.885 306.04 160.565 309.08 160.565 312.2C160.565 313.76 161.025 315.46 161.945 317.3H162.305C163.465 317.3 164.845 312.72 166.445 303.56C167.005 303.08 167.545 302.84 168.065 302.84C169.305 302.84 169.925 305.04 169.925 309.44C170.445 314.28 171.025 316.7 171.665 316.7L172.565 316.34C173.725 316.78 174.305 317.4 174.305 318.2C173.585 319.72 172.585 320.48 171.305 320.48C169.865 320.48 168.485 319.04 167.165 316.16C165.565 319.52 163.945 321.2 162.305 321.2C159.865 321.2 158.165 318.66 157.205 313.58L157.025 311.66V311.06C157.025 307.86 157.465 304.82 158.345 301.94ZM176.294 288.74C177.814 289.06 178.574 289.74 178.574 290.78C178.174 291.9 177.534 292.46 176.654 292.46C175.174 292.18 174.434 291.44 174.434 290.24C174.834 289.24 175.454 288.74 176.294 288.74ZM178.574 297.14C179.214 297.14 179.754 297.72 180.194 298.88L179.654 303.14V305.96C179.654 309.24 180.214 313.54 181.334 318.86C180.934 319.62 180.254 320 179.294 320C177.654 320 176.574 315.2 176.054 305.6V303.5C176.054 299.26 176.894 297.14 178.574 297.14ZM193.601 301.88C194.361 301.88 194.921 302.44 195.281 303.56C191.721 312.6 189.841 317.6 189.641 318.56L189.881 318.74H191.741C193.661 318.74 196.281 317.86 199.601 316.1C200.721 316.1 201.281 316.8 201.281 318.2C199.041 320.96 195.541 322.34 190.781 322.34L188.021 321.98C187.101 322.58 186.461 322.88 186.101 322.88C184.861 322.88 184.241 321.74 184.241 319.46C184.241 318.98 184.921 318.24 186.281 317.24L190.421 306.2V305.96H190.241L185.141 306.38C183.781 306.1 183.101 305.42 183.101 304.34C183.101 303.34 183.661 302.84 184.781 302.84C186.941 302.84 189.881 302.52 193.601 301.88ZM212.293 301.88C213.053 301.88 213.613 302.44 213.973 303.56C210.413 312.6 208.533 317.6 208.333 318.56L208.573 318.74H210.433C212.353 318.74 214.973 317.86 218.293 316.1C219.413 316.1 219.973 316.8 219.973 318.2C217.733 320.96 214.233 322.34 209.473 322.34L206.713 321.98C205.793 322.58 205.153 322.88 204.793 322.88C203.553 322.88 202.933 321.74 202.933 319.46C202.933 318.98 203.613 318.24 204.973 317.24L209.113 306.2V305.96H208.933L203.833 306.38C202.473 306.1 201.793 305.42 201.793 304.34C201.793 303.34 202.353 302.84 203.473 302.84C205.633 302.84 208.573 302.52 212.293 301.88ZM233.024 296.84C234.784 296.84 235.664 297.54 235.664 298.94L235.124 300.08L234.764 311.06C234.764 316.02 235.764 319.1 237.764 320.3L237.884 321.2C237.764 322.36 237.224 322.94 236.264 322.94H235.904C232.904 320.9 231.404 317.78 231.404 313.58H230.984C229.384 318.06 227.444 320.3 225.164 320.3C223.044 319.7 221.984 318.12 221.984 315.56C221.984 309.92 224.244 304.3 228.764 298.7C230.284 297.46 231.704 296.84 233.024 296.84ZM225.764 313.16L225.524 314.84V315.98H226.124C229.124 308.5 230.624 303.94 230.624 302.3H230.384C228.064 304.9 226.524 308.52 225.764 313.16Z" fill="#F9C600"/>
</svg>
